<svg xmlns="http://www.w3.org/2000/svg" viewBox="0 0 190.78 34.26"><defs><style>.cls-1{fill:#e50012;}</style></defs><title>logo_header_sp</title><g id="レイヤー_2" data-name="レイヤー 2"><g id="photo"><path class="cls-1" d="M71.45,0H66.74a11.49,11.49,0,0,1,7.67,10.55c0,5.79-5.09,10.88-9.43,10.88H48.55v7.1h22.9c5.67,0,12.42-6.67,12.42-14.27S77.12,0,71.45,0Z"/><path d="M45,26.61,35.79,6.75s-1-2.58-4.76-2.58H28.58c-2.45,0-4.78,2.58-4.78,2.58L0,29.33l4.77.09L26,9.3C27.39,7.83,28,7.89,28,7.89h1.39A1.39,1.39,0,0,1,30.65,9l4.7,11.2H17.77v2.5H36.41l1.65,3.95Z"/><path d="M76,0H48.45V.87H75.11a15.32,15.32,0,0,1,8.76,13.39c0,7.6-6.75,14.27-12.42,14.27H48.55v5.73H76c6.85,0,14.91-8,14.91-17.15S82.86,0,76,0Z"/><path d="M115,12.77C115,9.46,113.93,8,107,8c-4.48,0-7.78.39-7.78,4.13,0,2.34,1.66,3,4.2,3.25l9.16.74c3.46.27,8.63,1.06,8.63,7,0,7.27-7.79,7.63-13.35,7.63-10.52,0-13.53-2.38-13.69-8.77h4.88c0,3.68.92,5.29,8.93,5.29,6.11,0,8.36-.86,8.36-4.11,0-2.95-2.06-3.54-4.44-3.73l-10.25-.84c-2.22-.2-4.39-.87-5.63-2.34a6.76,6.76,0,0,1-1.49-4.34,6.32,6.32,0,0,1,3-5.53c1.9-1.15,4.17-1.72,9.2-1.72,5.74,0,7.93.69,9.48,1.4,3.18,1.47,3.56,3.7,3.62,6.71Z"/><path d="M127.93,4.93V15.56H146V4.93h4.84V30.49H146V19.08H127.93V30.49h-4.85V4.93Z"/><path d="M159.39,4.93V30.49h-4.95V4.93Z"/><path d="M170.28,4.93l15.64,21.68V4.93h4.86V30.49h-7.36L167.84,8.83V30.49H163V4.93Z"/></g></g></svg>